<svg xmlns="http://www.w3.org/2000/svg" width="90.142" height="79.777" viewBox="0 0 90.142 79.777">
  <g id="island-1199653" transform="translate(-97.998 -56.981)">
    <path id="Path_86" data-name="Path 86" d="M510.413,234.177a14.2,14.2,0,0,0-.05-3.161,18.81,18.81,0,0,0-1.85-5.865,29.542,29.542,0,0,0-1.659-2.906c-.307-.48-.641-.956-.963-1.415-.167-.238-.333-.488-.5-.733.037.68.033,1.366.029,2.037v.249c0,1.079-.047,2.026-.129,2.892a16.069,16.069,0,0,1-1.415,5.539c1.529.741,3.043,1.5,4.525,2.28.665.35,1.339.713,2.014,1.082Z" transform="translate(-333.283 -133.942)" fill="#fff"/>
    <path id="Path_87" data-name="Path 87" d="M440.539,218.115c-4.726.762-8.366,2.47-10.849,5.065,1.1.411,2.164.825,3.17,1.226q1.824.728,3.624,1.5a16.08,16.08,0,0,1,3.231-4.689c.607-.64,1.305-1.3,2.132-2.033l.208-.183c.483-.425.979-.862,1.494-1.266-.317.038-.637.081-.947.115-.678.075-1.378.152-2.062.263Z" transform="translate(-272.367 -132.003)" fill="#fff"/>
    <path id="Path_88" data-name="Path 88" d="M521.09,223.73c.765.681,1.524,1.4,2.263,2.146a38.108,38.108,0,0,1,5.758,7.32,29.261,29.261,0,0,1,2.044,4.146c.289.728.546,1.471.764,2.206a8.356,8.356,0,0,1,.426,2.41.227.227,0,0,1-.014.069c.192.143.388.282.578.429a14.238,14.238,0,0,1,2.6,2.414,25.647,25.647,0,0,0-3.526-9.7,35.278,35.278,0,0,0-8.24-9.5c-.847-.681-1.73-1.324-2.623-1.912a.311.311,0,0,0-.034-.022Z" transform="translate(-347.419 -136.925)" fill="#fff"/>
    <path id="Path_89" data-name="Path 89" d="M188.042,108.971a6.235,6.235,0,0,0-1.737-2l-.044-.039a34.473,34.473,0,0,0-3.586-2.665A101.579,101.579,0,0,0,171.3,97.876c-1.212-.6-2.423-1.166-3.632-1.724-.078-.047-.173-.094-.284-.148q-.464-.228-.624.1l-6.17,13.441-4.089,9.171-.7,1.446a1.489,1.489,0,0,1-.09.15,48.159,48.159,0,0,0-12.709.6c-.624-8.275-4.4-16.625-8.655-23.609A75.151,75.151,0,0,0,117.852,78.63c.349,0,.724-.051,1.065-.041a11.51,11.51,0,0,1,4.417.926c.282.129.458-.293.191-.435a11.8,11.8,0,0,0-3.886-1.425,6.233,6.233,0,0,0-2.125-.1c.34-.386.67-.76,1-1.125a25.727,25.727,0,0,1,6.8,1.765c.2.088.314-.2.132-.3a19.6,19.6,0,0,0-6.107-2.343c.349-.358.7-.7,1.076-1.024a21.264,21.264,0,0,1,7.672,2.788c.18.113.392-.137.21-.264a20.343,20.343,0,0,0-6.947-3.278,11.931,11.931,0,0,1,1.719-1.055c1.224.423,2.468.76,3.66,1.3a24.907,24.907,0,0,1,4.223,2.687c.2.143.515-.12.324-.316a17.868,17.868,0,0,0-6.755-4.283c.131-.046.261-.094.4-.136a11.171,11.171,0,0,1,1.681-.385,19.378,19.378,0,0,1,3.589,2.045,18.828,18.828,0,0,1,3.163,3.281.242.242,0,0,0,.388-.291,14.709,14.709,0,0,0-5.424-5.148,10.824,10.824,0,0,1,1.789.173,17.579,17.579,0,0,1,5.611,6.426c.138.247.554.088.416-.167a21.5,21.5,0,0,0-3.744-5.6,15.679,15.679,0,0,1,4.2,2.533c.171.143.441-.1.286-.279a12.567,12.567,0,0,0-3.643-2.8,4.7,4.7,0,0,1,1.94.743.274.274,0,0,0,.34-.43,5.548,5.548,0,0,0-2.628-1.089,7.114,7.114,0,0,0-1.973-.161q-.588-.177-1.19-.3a9.851,9.851,0,0,1,1.859.028.22.22,0,0,0,.067-.434,8.272,8.272,0,0,0-4.775.118q-.291,0-.583.014a21.631,21.631,0,0,1,2.391-.694c.173-.041.221-.33.007-.344a7.978,7.978,0,0,0-5.179,1.481c-.159.048-.317.106-.476.161a5.077,5.077,0,0,1,1.79-1.161c.2-.06.094-.333-.085-.333-1.075,0-1.856.846-2.647,1.483-.458.369-1.056.748-1.543,1.2-.2.126-.4.261-.6.4l.009-.012a19.435,19.435,0,0,1,2.532-2.455c.057-.047.006-.154-.067-.118a8.669,8.669,0,0,0-2.8,2.111,10.382,10.382,0,0,0-1.455,1.975A10.606,10.606,0,0,0,117.245,75a10.459,10.459,0,0,1,2.387-3.542c.147-.152-.1-.4-.259-.266a10.139,10.139,0,0,0-2.949,4A9.627,9.627,0,0,1,117,72.83a11.758,11.758,0,0,1,3.1-4.292.183.183,0,0,0-.219-.293,11.452,11.452,0,0,0-4.158,5.348c-.031-.241-.053-.483-.075-.723a11.815,11.815,0,0,1,1.434-3.321,10.588,10.588,0,0,1,3.824-3.124c.159-.082.122-.379-.085-.333a7.544,7.544,0,0,0-4.286,2.779,10.192,10.192,0,0,0-.936,1.422,16.487,16.487,0,0,1,.221-1.865,11.986,11.986,0,0,1,4.768-4.061.233.233,0,0,0-.174-.432,9.283,9.283,0,0,0-4.161,2.608c.114-.385.249-.762.392-1.137a16.274,16.274,0,0,1,2.529-2.072,15.268,15.268,0,0,1,3.976-1.463.249.249,0,0,0-.054-.473,9.438,9.438,0,0,0-5.338,1.695,15.562,15.562,0,0,1,.926-1.411,14.775,14.775,0,0,1,6.084-1.32.215.215,0,0,0,.066-.425,9.035,9.035,0,0,0-5.034.381,16.552,16.552,0,0,1,1.259-1.211,14.084,14.084,0,0,1,5.951-.547c.1.012.194-.138.088-.2a6.45,6.45,0,0,0-4.407-.511c.187-.129.363-.264.559-.388.3-.192-.03-.61-.328-.439a16.7,16.7,0,0,0-8.336,17.172,14.907,14.907,0,0,0-3.472-4.274c-2.446-2.081-5.793-4.188-9.057-4.3-.1,0-.166.143-.053.183.643.224,1.266.472,1.874.735a11.012,11.012,0,0,0-3.892,1.439c-.263.147-.118.569.181.45.785-.314,1.582-.62,2.394-.857a22.633,22.633,0,0,1,2.582-.446c.569.284,1.116.591,1.649.915a12.157,12.157,0,0,0-5.483,1.085.192.192,0,0,0,.143.356,13.758,13.758,0,0,1,3.543-.7c1-.059,2.008.111,3,.041q.455.32.889.662a10.926,10.926,0,0,0-5.375.769c-.273.113-.176.6.134.527a15.974,15.974,0,0,1,3.289-.5,24.449,24.449,0,0,1,3.266.347q.506.479.977,1a10.594,10.594,0,0,0-5.108.028c-.337.082-.3.607.064.554a14.337,14.337,0,0,1,6.046.606c.369.48.711.986,1.037,1.508-.407-.173-.822-.316-1.2-.444a13.048,13.048,0,0,0-4.347-.733c-.3.006-.284.457-.01.507a18,18,0,0,1,4.232,1.078c.773.347,1.485.945,2.266,1.305.049.1.1.2.146.3-5.108-2.969-12.141-2.34-16.259,2.1-.159.173.1.415.279.286a19.924,19.924,0,0,1,1.755-1.107c-.145.187-.282.374-.4.547A7.84,7.84,0,0,0,98.4,81.5c-.034.194.272.293.34.1a12.25,12.25,0,0,1,1.666-3.062c.508-.687,1.24-1.246,1.752-1.924a14.954,14.954,0,0,1,1.594-.545,8.877,8.877,0,0,0-1.343,1.035,8.286,8.286,0,0,0-1.978,3.138.16.16,0,0,0,.293.129c1.12-2.109,3.206-3.319,5.127-4.556a.239.239,0,0,0,.105-.156c.33-.033.659-.048.989-.055a9.8,9.8,0,0,0-3.371,2.821c-.124.159.092.4.252.261a15.562,15.562,0,0,1,2.5-1.92,12,12,0,0,1,2.98-.963c.016,0,.02-.02.034-.026.294.051.589.119.882.191a7.651,7.651,0,0,0-3.684,2.016.129.129,0,0,0,.148.2,25.717,25.717,0,0,1,3.106-1.265c.771-.187,1.6-.154,2.373-.309.312.129.622.268.933.422-.446.045-.887.116-1.3.18a8.562,8.562,0,0,0-3.321,1.075c-.114.069-.03.256.1.238,1.108-.169,2.192-.5,3.305-.63.887-.107,1.794.01,2.675-.052.081.051.163.1.245.148-.458.08-.91.174-1.351.293a17.087,17.087,0,0,0-7.859,1.876c-.206.116-.171.527.116.457,1.442-.353,2.839-.685,4.255-.919-.388.215-.764.451-1.132.7a9.524,9.524,0,0,0-5.974,2.714c-.231.227.131.537.372.384a14.114,14.114,0,0,1,3.794-1.709q-.444.394-.859.818a8.407,8.407,0,0,0-4.508,2.915.2.2,0,0,0,.272.279,18.018,18.018,0,0,1,2.67-1.68c.113-.054.231-.1.347-.144q-.5.625-.949,1.293a10.547,10.547,0,0,0-1.674.966,10.031,10.031,0,0,0-2.862,2.82.334.334,0,0,0,.523.415,16.736,16.736,0,0,1,2.949-2.4c-.146.28-.284.565-.416.852a13.078,13.078,0,0,0-1.661,1.606,10.777,10.777,0,0,0-2.349,3.611c-.112.305.291.6.508.307a34.088,34.088,0,0,1,2.336-3.055c.1-.111.217-.219.332-.324q-.02.059-.038.117a15.182,15.182,0,0,0-2.253,4.752c-.138.435.5.733.661.291a15.444,15.444,0,0,1,.9-2,17.573,17.573,0,0,0,.3,6.592.215.215,0,0,0,.427-.049,20.58,20.58,0,0,1,1.019-8.953c.217,2.748,1.571,5.695,2.43,7.863.121.305.557.117.467-.189a38.741,38.741,0,0,1-1.327-6.335,32.89,32.89,0,0,1,.189-4.91c.156-.249.326-.5.5-.742-.407,3.222.817,6.937,1.714,9.7.116.356.741.208.65-.166a37.544,37.544,0,0,1-1.126-6.29,14.6,14.6,0,0,1,.968-5.891l.047-.044a21.465,21.465,0,0,0,.457,7.806c.1.495.882.416.79-.091a20.93,20.93,0,0,1-.233-5.671c.106-1.145.418-2.263.562-3.393a18.673,18.673,0,0,1,1.71-1.148c-1.372,2.654-1.279,6.482-.751,9.087a.338.338,0,0,0,.672-.077,17.938,17.938,0,0,1,.342-5.565c.342-1.531,1.167-2.9,1.524-4.393q.669-.319,1.365-.605a15.26,15.26,0,0,0-1.271,6.618c.007.4.7.416.706.014a14.924,14.924,0,0,1,2.169-7.247l.086-.03c-.567,1.691-.85,3.47-1.245,5.205-.075.328.474.5.574.168.562-1.828,1.4-3.562,1.949-5.394a.624.624,0,0,0-.017-.406l.029-.01a92.692,92.692,0,0,1,15.549,19.08c4.53,7.441,6.867,15.174,8.91,23.545a48.555,48.555,0,0,0-9.752,3.277,26.635,26.635,0,0,0-6.644-9.667,35.729,35.729,0,0,0-9.769-6.695c.161-.038.328-.107.486-.143a5.473,5.473,0,0,1,2.143-.086.113.113,0,0,0,.038-.222,5.6,5.6,0,0,0-1.956-.206,2.993,2.993,0,0,0-.993.2c.112-.217.221-.429.332-.635a12.252,12.252,0,0,1,3.338.023c.1.018.121-.129.026-.154a9.329,9.329,0,0,0-3.1-.358c.121-.208.249-.409.384-.6a10.111,10.111,0,0,1,3.861.388c.1.031.164-.109.066-.146a9.66,9.66,0,0,0-3.592-.691,5.562,5.562,0,0,1,.69-.7c.61.052,1.219.064,1.828.174a11.847,11.847,0,0,1,2.259.749c.108.043.224-.115.113-.183a8.5,8.5,0,0,0-3.6-1.19c.054-.036.1-.075.157-.109a5.314,5.314,0,0,1,.733-.372,9.2,9.2,0,0,1,1.888.526,8.939,8.939,0,0,1,1.839,1.146.116.116,0,0,0,.145-.18,7,7,0,0,0-3.087-1.742,5.122,5.122,0,0,1,.825-.121,8.358,8.358,0,0,1,3.34,2.3c.092.1.266-.024.173-.125a10.133,10.133,0,0,0-2.391-2.148,7.44,7.44,0,0,1,2.247.679c.1.045.191-.1.1-.161a5.981,5.981,0,0,0-2.017-.869,2.235,2.235,0,0,1,.993.116.13.13,0,0,0,.107-.238,2.645,2.645,0,0,0-1.337-.2,3.384,3.384,0,0,0-.915.162c-.2-.009-.39-.016-.585-.008a4.525,4.525,0,0,1,.85-.2.1.1,0,0,0-.019-.208,3.914,3.914,0,0,0-2.185.612q-.125.031-.247.067a10.3,10.3,0,0,1,1-.594c.074-.039.064-.177-.037-.159a3.787,3.787,0,0,0-2.215,1.284c-.072.043-.14.1-.21.145a2.456,2.456,0,0,1,.7-.759c.087-.051,0-.166-.078-.144-.495.126-.757.605-1.048.991-.164.219-.385.46-.555.718-.092.094-.174.2-.261.3.006-.012.009-.025.015-.038a9.2,9.2,0,0,1,.882-1.425c.021-.028-.015-.072-.044-.047a4.136,4.136,0,0,0-1.044,1.3,4.93,4.93,0,0,0-.437,1.084,5.023,5.023,0,0,0-.307.629,4.944,4.944,0,0,1,.694-1.944c.05-.087-.092-.175-.15-.093a4.8,4.8,0,0,0-.894,2.2,4.564,4.564,0,0,1-.008-1.165,5.6,5.6,0,0,1,.929-2.338.087.087,0,0,0-.136-.109,5.442,5.442,0,0,0-1.3,2.95c-.043-.11-.082-.22-.121-.332a5.6,5.6,0,0,1,.277-1.693,5.041,5.041,0,0,1,1.4-1.883c.064-.056.012-.189-.078-.144a3.583,3.583,0,0,0-1.652,1.778,4.817,4.817,0,0,0-.266.764,7.9,7.9,0,0,1-.113-.862,5.725,5.725,0,0,1,1.725-2.448.111.111,0,0,0-.13-.18,4.416,4.416,0,0,0-1.615,1.684c.008-.19.026-.379.048-.569a7.755,7.755,0,0,1,.926-1.249,7.293,7.293,0,0,1,1.663-1.136c.1-.054.03-.236-.08-.211a4.486,4.486,0,0,0-2.264,1.4,7.247,7.247,0,0,1,.263-.76,7.034,7.034,0,0,1,2.652-1.316.1.1,0,0,0-.019-.2,4.3,4.3,0,0,0-2.277.759,8.062,8.062,0,0,1,.439-.7A6.684,6.684,0,0,1,116.8,97.9c.049-.007.073-.086.017-.1a3.072,3.072,0,0,0-2.092.277c.072-.081.138-.166.213-.245.117-.123-.084-.277-.2-.164a7.936,7.936,0,0,0-1.825,8.94,7.066,7.066,0,0,0-2.122-1.626,7.689,7.689,0,0,0-4.673-.933c-.046.01-.06.085,0,.09.321.029.633.074.942.124a5.273,5.273,0,0,0-1.621,1.112c-.1.1.012.275.136.187.326-.235.658-.469,1-.673a10.086,10.086,0,0,1,1.118-.5c.3.065.586.138.868.224a5.8,5.8,0,0,0-2.383,1.134.091.091,0,0,0,.107.147,6.548,6.548,0,0,1,1.552-.732c.455-.143.936-.181,1.385-.328.16.061.312.136.467.2a5.2,5.2,0,0,0-2.366.975c-.113.084-.011.3.123.227a7.688,7.688,0,0,1,1.457-.614,11.343,11.343,0,0,1,1.536-.217c.192.108.381.222.566.344a5.04,5.04,0,0,0-2.342.605c-.146.077-.068.314.093.249a6.777,6.777,0,0,1,2.835-.42c.227.18.449.37.661.576-.2-.031-.406-.053-.59-.068a6.178,6.178,0,0,0-2.088.166c-.136.037-.078.243.054.235a8.486,8.486,0,0,1,2.075.006c.393.069.787.258,1.186.335.033.039.063.082.1.121a6.365,6.365,0,0,0-7.233,2.862c-.053.1.093.18.161.1a9.423,9.423,0,0,1,.683-.716c-.045.1-.089.208-.124.3a3.725,3.725,0,0,0-.2,1.691c.007.094.159.1.168.006a5.807,5.807,0,0,1,.413-1.6c.154-.376.427-.718.584-1.09a7.391,7.391,0,0,1,.679-.441,4.2,4.2,0,0,0-.507.638,3.93,3.93,0,0,0-.548,1.675.076.076,0,0,0,.15.025,6.409,6.409,0,0,1,1.835-2.7.108.108,0,0,0,.03-.084q.226-.081.458-.143a4.634,4.634,0,0,0-1.235,1.695c-.039.087.089.174.146.09a7.356,7.356,0,0,1,.929-1.175,5.729,5.729,0,0,1,1.262-.789c.007,0,.007-.011.013-.016.143-.011.287-.014.432-.014a3.625,3.625,0,0,0-1.467,1.357.061.061,0,0,0,.091.074,12.2,12.2,0,0,1,1.285-.943c.333-.175.72-.256,1.058-.418.161.023.323.053.487.088-.2.073-.4.154-.588.233a4.07,4.07,0,0,0-1.406.88c-.044.045.016.122.071.1.492-.206.952-.483,1.45-.674.4-.152.829-.2,1.227-.335.046.015.091.027.138.043-.191.085-.372.181-.553.28a.17.17,0,0,0-.019,0,8.129,8.129,0,0,0-3.428,1.784c-.082.078-.018.263.106.2.632-.335,1.247-.65,1.881-.924-.159.147-.312.3-.457.457a4.529,4.529,0,0,0-2.45,1.947c-.08.131.123.233.217.133a6.706,6.706,0,0,1,1.562-1.224c-.106.155-.213.31-.31.472a4,4,0,0,0-1.744,1.868.094.094,0,0,0,.157.1,8.447,8.447,0,0,1,1.037-1.084c.045-.037.1-.065.143-.1-.105.231-.2.466-.287.7a4.953,4.953,0,0,0-.658.633,4.785,4.785,0,0,0-.993,1.631.159.159,0,0,0,.289.13,7.986,7.986,0,0,1,1.082-1.45c-.035.146-.057.3-.085.444a6.126,6.126,0,0,0-.59.931,5.1,5.1,0,0,0-.663,1.937c-.014.154.205.241.272.083a16.042,16.042,0,0,1,.722-1.679c.034-.062.08-.121.119-.181,0,.014,0,.027,0,.041a7.178,7.178,0,0,0-.492,2.463c-.013.217.316.279.339.057a7.488,7.488,0,0,1,.191-1.042,8.331,8.331,0,0,0,.894,3.02.1.1,0,0,0,.191-.072,9.786,9.786,0,0,1-.569-4.245,13.717,13.717,0,0,0,2.032,3.342c.091.126.27-.011.194-.141a18.437,18.437,0,0,1-1.346-2.767,15.381,15.381,0,0,1-.488-2.273c.044-.137.1-.275.147-.413a11.4,11.4,0,0,0,1.915,4.271c.1.151.365.01.28-.151a17.926,17.926,0,0,1-1.249-2.768,6.918,6.918,0,0,1-.238-2.811l.02-.033a10.225,10.225,0,0,0,1.114,3.536c.1.217.455.09.354-.133a9.923,9.923,0,0,1-.764-2.587c-.084-.539-.07-1.088-.134-1.626a9.114,9.114,0,0,1,.673-.747,7.081,7.081,0,0,0,.689,4.291.161.161,0,0,0,.3-.113,8.5,8.5,0,0,1-.488-2.605c-.02-.742.192-1.465.187-2.192.187-.155.379-.307.579-.455a7.268,7.268,0,0,0,.168,3.205c.049.182.37.111.328-.075a7.1,7.1,0,0,1,.162-3.592.338.338,0,0,0,.033-.022c-.064.845.011,1.7.03,2.541,0,.16.275.173.284.011.047-.908.233-1.8.272-2.712a.3.3,0,0,0-.055-.185.023.023,0,0,1,.008,0,44.116,44.116,0,0,1,9.385,6.988,37.552,37.552,0,0,1,6.724,9.609,44.145,44.145,0,0,0-8.086,5.042c-.263.207-.007.654.282.453a46.921,46.921,0,0,1,28.891-8.149c4.9.18,10.165.493,14.883,1.915a42.243,42.243,0,0,1,12.878,6.646c.2.147.43-.183.254-.349a39.072,39.072,0,0,0-22.389-10.091,15.062,15.062,0,0,0,.73-1.677q.468-1.04,1.486-3.56t1.441-3.381q.423-.859.9-1.663l-.042-.174q.45-.741.679-1.206t1.023-2.509c.249-.644.732-1.739,1.418-3.214,2.241,1,4.49,1.945,6.736,2.816a77.987,77.987,0,0,0,11.367,3.627,17.246,17.246,0,0,0,3.59.495h.046c.473,0,1.351,0,1.578-.459a.714.714,0,0,0-.065-.569Z" transform="translate(0 0)" fill="#fff"/>
    <path id="Path_90" data-name="Path 90" d="M347.373,234.533l.079.077a25.182,25.182,0,0,0,3.161,2.527,90.735,90.735,0,0,0,10.838,6.311c1.819.924,3.658,1.8,5.5,2.648l3.1-6.819c-2.963-1.333-5.907-2.558-8.795-3.634a63.816,63.816,0,0,0-10.809-3.233l-.144-.027a16.25,16.25,0,0,0-2.266-.3,2.528,2.528,0,0,0-1.649.293l-.013.01a.492.492,0,0,0-.166.421c.037.632.714,1.292,1.163,1.727Z" transform="translate(-203.817 -143.777)" fill="#fff"/>
    <path id="Path_91" data-name="Path 91" d="M358.044,209.8c.125.029.249.063.374.093a9.368,9.368,0,0,1,2.347-1.355c.783-.346,1.6-.658,2.423-.929a32.222,32.222,0,0,1,9.141-1.539,45.467,45.467,0,0,1,7.7.442,34.02,34.02,0,0,0-5.962-1.329,35.205,35.205,0,0,0-12.407.569,23.391,23.391,0,0,0-8.147,3.44c.2,0,.4,0,.568,0a19.978,19.978,0,0,1,3.961.6Z" transform="translate(-209.816 -121.448)" fill="#fff"/>
    <path id="Path_92" data-name="Path 92" d="M509.381,199.233c.654-1.61,1.749-4.056,1.571-4.144-.446-.219-1.127,1.176-2.7,3.583Z" transform="translate(-336.874 -113.388)" fill="#fff"/>
    <path id="Path_93" data-name="Path 93" d="M233.44,447.438c-6.528-.25-13.617,3.662-18.5,7.665-.265.217.1.657.379.465a47.205,47.205,0,0,1,9.113-4.926c2.973-1.186,6.094-1.663,9.1-2.7a.261.261,0,0,0-.082-.509Z" transform="translate(-95.947 -320.612)" fill="#fff"/>
    <path id="Path_94" data-name="Path 94" d="M255.429,469.939c-3.375.039-6.652,1.624-9.414,3.454a.366.366,0,0,0,.386.621c2.9-1.767,5.92-2.539,9.118-3.525a.282.282,0,0,0-.089-.55Z" transform="translate(-121.407 -339.098)" fill="#fff"/>
    <path id="Path_95" data-name="Path 95" d="M395.259,443.719c-.211.027-.211.354.009.337a46.936,46.936,0,0,1,15.638,1.392c5.245,1.382,9.544,4,14.26,6.539a.275.275,0,0,0,.321-.439c-7.74-7-20.216-9.115-30.227-7.829Z" transform="translate(-243.964 -317.276)" fill="#fff"/>
    <path id="Path_96" data-name="Path 96" d="M497.164,468.725a.436.436,0,0,0-.21.846,35.547,35.547,0,0,1,11.686,5.264c.1.068.206-.087.123-.169a22.19,22.19,0,0,0-11.6-5.941Z" transform="translate(-327.337 -338.093)" fill="#fff"/>
    <path id="Path_97" data-name="Path 97" d="M448.918,76.657a4.912,4.912,0,0,1,2.9,1.107,15.047,15.047,0,0,1,1.569,2.093.725.725,0,0,0,.718.19.687.687,0,0,0,.176-.074.822.822,0,0,0,.162-.141.589.589,0,0,0,.1-.065,7.391,7.391,0,0,1,5.272-2.457.237.237,0,0,0,0-.473,7.465,7.465,0,0,0-5.6,1.457,5.977,5.977,0,0,0-5.3-2.165.264.264,0,0,0,0,.527Z" transform="translate(-287.945 -15.692)" fill="#fff"/>
    <path id="Path_98" data-name="Path 98" d="M385.679,172a.165.165,0,0,0,0,.33,3.075,3.075,0,0,1,1.813.692,9.382,9.382,0,0,1,.982,1.309.464.464,0,0,0,.559.072.507.507,0,0,0,.1-.088.367.367,0,0,0,.06-.041,4.619,4.619,0,0,1,3.3-1.536c.2,0,.183-.273,0-.3a4.673,4.673,0,0,0-3.5.91A3.734,3.734,0,0,0,385.679,172Z" transform="translate(-236.096 -94.425)" fill="#fff"/>
    <path id="Path_99" data-name="Path 99" d="M373.767,113.645a3.083,3.083,0,0,1,1.813.691,9.383,9.383,0,0,1,.982,1.309.464.464,0,0,0,.559.072.508.508,0,0,0,.1-.088.369.369,0,0,0,.06-.041,4.622,4.622,0,0,1,3.3-1.536.148.148,0,0,0,0-.3,4.673,4.673,0,0,0-3.5.91,3.738,3.738,0,0,0-3.31-1.353.166.166,0,0,0,0,.332Z" transform="translate(-226.315 -46.237)" fill="#fff"/>
    <path id="Path_100" data-name="Path 100" d="M440.986,130.879a2.486,2.486,0,0,1,1.469.56,7.527,7.527,0,0,1,.8,1.061.368.368,0,0,0,.363.1.373.373,0,0,0,.089-.038.476.476,0,0,0,.082-.071.3.3,0,0,0,.048-.033,3.744,3.744,0,0,1,2.671-1.245.12.12,0,0,0,0-.24,3.779,3.779,0,0,0-2.836.738,3.03,3.03,0,0,0-2.682-1.1.134.134,0,0,0,0,.268Z" transform="translate(-281.536 -60.444)" fill="#fff"/>
  </g>
</svg>
