<svg xmlns="http://www.w3.org/2000/svg" width="62.452" height="62.061" viewBox="0 0 62.452 62.061">
  <g id="noun-cruise-3705343" transform="translate(-6.005 -6.157)">
    <path id="Path_101" data-name="Path 101" d="M32.316,51.6a1.3,1.3,0,0,1-.911-.377,4.717,4.717,0,0,0-4.476-1.249,1.275,1.275,0,0,1-.794-.052A33.038,33.038,0,0,1,15.257,42.9L6.552,34.5a1.285,1.285,0,0,1-.3-1.418,1.335,1.335,0,0,1,1.21-.82H67.11a1.3,1.3,0,0,1,1.054.533,1.274,1.274,0,0,1,.182,1.158L63.558,48.928a1.23,1.23,0,0,1-1.275.9A4.766,4.766,0,0,0,58.8,51.193a1.288,1.288,0,0,1-.924.377h0a1.344,1.344,0,0,1-.924-.377,4.834,4.834,0,0,0-6.675,0,1.288,1.288,0,0,1-.924.377h0a1.344,1.344,0,0,1-.924-.377,4.657,4.657,0,0,0-4.489-1.223,4.572,4.572,0,0,0-2.186,1.223,1.3,1.3,0,0,1-1.835,0,4.724,4.724,0,0,0-6.675,0A1.234,1.234,0,0,1,32.316,51.6Zm4.255-4.359a7.414,7.414,0,0,1,4.268,1.353,6.959,6.959,0,0,1,2.485-1.132,7.358,7.358,0,0,1,6.038,1.132,7.5,7.5,0,0,1,8.523,0,7.323,7.323,0,0,1,3.487-1.314l3.969-12.414H10.69l6.376,6.168a30.491,30.491,0,0,0,9.668,6.324,7.255,7.255,0,0,1,5.582,1.236A7.375,7.375,0,0,1,36.571,47.237Z" transform="translate(0.045 7.862)" fill="#fff"/>
    <path id="Path_102" data-name="Path 102" d="M56.892,37.257H22.931a1.3,1.3,0,0,1-1.132-.664,1.285,1.285,0,0,1,.026-1.314L28.24,24.922a1.3,1.3,0,0,1,1.106-.612H56.892a1.305,1.305,0,0,1,1.3,1.3V35.969A1.3,1.3,0,0,1,56.892,37.257Zm-31.632-2.6H55.591V26.9H30.075Z" transform="translate(4.707 5.468)" fill="#fff"/>
    <path id="Path_103" data-name="Path 103" d="M44.247,29.475H37.181a1.305,1.305,0,0,1-1.3-1.3V17.061a1.305,1.305,0,0,1,1.3-1.3h7.066a1.305,1.305,0,0,1,1.3,1.3V28.174A1.305,1.305,0,0,1,44.247,29.475Zm-5.764-2.6h4.463v-8.51H38.482Z" transform="translate(8.999 2.892)" fill="#fff"/>
    <path id="Path_104" data-name="Path 104" d="M24.625,40.132H21.671a1.3,1.3,0,1,1,0-2.6h2.954a1.3,1.3,0,0,1,0,2.6Z" transform="translate(4.327 9.45)" fill="#fff"/>
    <path id="Path_105" data-name="Path 105" d="M31.675,40.132H28.721a1.3,1.3,0,0,1,0-2.6h2.954a1.3,1.3,0,0,1,0,2.6Z" transform="translate(6.45 9.45)" fill="#fff"/>
    <path id="Path_106" data-name="Path 106" d="M38.725,40.132H35.771a1.3,1.3,0,0,1,0-2.6h2.954a1.3,1.3,0,0,1,0,2.6Z" transform="translate(8.574 9.45)" fill="#fff"/>
    <path id="Path_107" data-name="Path 107" d="M45.775,40.132H42.821a1.3,1.3,0,1,1,0-2.6h2.954a1.3,1.3,0,0,1,0,2.6Z" transform="translate(10.697 9.45)" fill="#fff"/>
    <path id="Path_108" data-name="Path 108" d="M23.851,48.127a1.333,1.333,0,0,1-.924-.377,4.767,4.767,0,0,0-6.7,0,1.3,1.3,0,0,1-1.835,0A4.734,4.734,0,0,0,8.107,47.4a1.3,1.3,0,1,1-1.613-2.03,7.325,7.325,0,0,1,8.822-.221,7.372,7.372,0,0,1,8.523,0A6.885,6.885,0,0,1,26.349,44a7.3,7.3,0,0,1,6.012,1.145,7.372,7.372,0,0,1,8.523,0,6.959,6.959,0,0,1,2.485-1.132,7.358,7.358,0,0,1,6.038,1.132,7.5,7.5,0,0,1,8.523,0,7.376,7.376,0,0,1,8.822.221,1.306,1.306,0,0,1-1.627,2.043A4.654,4.654,0,0,0,62.341,46.4a4.588,4.588,0,0,0-3.5,1.366,1.288,1.288,0,0,1-.924.377h0a1.344,1.344,0,0,1-.924-.377,4.834,4.834,0,0,0-6.675,0,1.288,1.288,0,0,1-.924.377h0a1.344,1.344,0,0,1-.924-.377,4.657,4.657,0,0,0-4.489-1.223,4.572,4.572,0,0,0-2.186,1.223,1.3,1.3,0,0,1-1.835,0,4.752,4.752,0,0,0-6.688,0,1.3,1.3,0,0,1-1.835,0,4.747,4.747,0,0,0-6.688-.013A1.25,1.25,0,0,1,23.851,48.127Z" transform="translate(0 11.331)" fill="#fff"/>
    <path id="Path_109" data-name="Path 109" d="M30.932,16.733a7.358,7.358,0,0,1-4.567-1.587,1.3,1.3,0,1,1,1.613-2.03,4.734,4.734,0,0,0,6.285-.351,7.359,7.359,0,0,1,10.371,0A1.3,1.3,0,1,1,42.8,14.6a4.767,4.767,0,0,0-6.7,0A7.3,7.3,0,0,1,30.932,16.733Z" transform="translate(5.984 1.346)" fill="#fff"/>
    <path id="Path_110" data-name="Path 110" d="M23.912,12.276a7.358,7.358,0,0,1-4.567-1.587,1.3,1.3,0,1,1,1.613-2.03,4.749,4.749,0,0,0,6.285-.364,7.359,7.359,0,0,1,10.371,0,1.3,1.3,0,0,1-1.835,1.835,4.767,4.767,0,0,0-6.7,0A7.3,7.3,0,0,1,23.912,12.276Z" transform="translate(3.869)" fill="#fff"/>
    <path id="Path_111" data-name="Path 111" d="M40.884,54.849a1.356,1.356,0,0,1-.924-.377,4.736,4.736,0,0,0-6.675,0,1.3,1.3,0,0,1-1.835,0,4.752,4.752,0,0,0-6.688,0,1.3,1.3,0,0,1-1.835,0,4.767,4.767,0,0,0-6.7,0,1.3,1.3,0,0,1-1.835,0,4.734,4.734,0,0,0-6.285-.351,1.3,1.3,0,0,1-1.822-.208,1.317,1.317,0,0,1,.208-1.835,7.344,7.344,0,0,1,8.822-.221,7.372,7.372,0,0,1,8.523,0,7.372,7.372,0,0,1,8.523,0,7.372,7.372,0,0,1,8.523,0,7.062,7.062,0,0,1,2.485-1.132,7.406,7.406,0,0,1,6.038,1.132,7.329,7.329,0,0,1,8.523,0,7.343,7.343,0,0,1,8.822.221,1.306,1.306,0,1,1-1.627,2.043,4.722,4.722,0,0,0-6.285.364,1.3,1.3,0,0,1-1.835,0,4.736,4.736,0,0,0-6.675,0,1.3,1.3,0,0,1-1.835,0,4.657,4.657,0,0,0-4.489-1.223,4.572,4.572,0,0,0-2.186,1.223A1.437,1.437,0,0,1,40.884,54.849Z" transform="translate(0 13.353)" fill="#fff"/>
  </g>
</svg>
