<svg xmlns="http://www.w3.org/2000/svg" width="61.99" height="61.99" viewBox="0 0 61.99 61.99">
  <g id="noun-hut-4323054" transform="translate(-87.498 -17.5)">
    <path id="Path_112" data-name="Path 112" d="M148.455,66.059h-1.033V61.926a1.033,1.033,0,0,0-1.033-1.033h-2.066V34.031h4.133a1.033,1.033,0,0,0,.765-1.728L138.888,20.938a1.033,1.033,0,0,0-.765-.339H126.629a4.141,4.141,0,0,0-4-3.1H114.36a4.141,4.141,0,0,0-4,3.1H98.863a1.033,1.033,0,0,0-.765.339L87.766,32.3a1.033,1.033,0,0,0,.765,1.728h4.133V60.893H90.6a1.033,1.033,0,0,0-1.033,1.033v4.133H88.531A1.033,1.033,0,0,0,87.5,67.092v4.133a1.033,1.033,0,0,0,1.033,1.033h3.1v6.2a1.033,1.033,0,0,0,1.033,1.033H96.8a1.033,1.033,0,0,0,1.033-1.033v-6.2h8.265v6.2a1.033,1.033,0,0,0,1.033,1.033h4.133a1.033,1.033,0,0,0,1.033-1.033v-6.2h12.4v6.2a1.033,1.033,0,0,0,1.033,1.033h4.133a1.033,1.033,0,0,0,1.033-1.033v-6.2h8.265v6.2a1.033,1.033,0,0,0,1.033,1.033h4.133a1.033,1.033,0,0,0,1.033-1.033v-6.2h3.1a1.033,1.033,0,0,0,1.033-1.033V67.092a1.033,1.033,0,0,0-1.033-1.033Zm-12.4-43.393a1.033,1.033,0,0,0-.576.173l-2.523,1.684-2.526-1.679a1.033,1.033,0,0,0-.573-.178Zm-21.7-3.1h8.265a2.066,2.066,0,0,1,1.789,1.033H112.571a2.066,2.066,0,0,1,1.789-1.033Zm7.232,3.1a1.033,1.033,0,0,0-.576.173l-2.523,1.684-2.526-1.679a1.033,1.033,0,0,0-.573-.178Zm-14.464,0a1.033,1.033,0,0,0-.576.173l-2.523,1.684L101.5,22.844a1.033,1.033,0,0,0-.573-.178Zm-16.263,9.3,8.454-9.3h1.609a1.033,1.033,0,0,0-.567,1.893l3.1,2.066a1.033,1.033,0,0,0,1.147,0l3.1-2.066a1.033,1.033,0,0,0-.572-1.893h8.257a1.033,1.033,0,0,0-.567,1.893l3.1,2.066a1.033,1.033,0,0,0,1.147,0l3.1-2.066a1.033,1.033,0,0,0-.572-1.893h8.257a1.033,1.033,0,0,0-.567,1.893l3.1,2.066a1.033,1.033,0,0,0,1.147,0l3.1-2.066a1.033,1.033,0,0,0-.572-1.893h1.6l8.454,9.3ZM110.91,46.429h10.682v4.133H111.26V47.978a3.582,3.582,0,0,0-.35-1.55Zm.35,12.4h30.995v2.066H111.26Zm0-2.066V52.628h10.332v1.033a1.033,1.033,0,0,0,1.033,1.033h14.464a1.033,1.033,0,0,0,1.033-1.033V52.628h4.133V56.76Zm12.4-4.133V45.4h5.166v7.232Zm7.232,0V45.4h5.166v7.232Zm7.232-2.066V46.429h4.133v4.133Zm0-6.2a1.033,1.033,0,0,0-1.033-1.033H122.625a1.033,1.033,0,0,0-1.033,1.033H94.73V40.23h47.525v4.133Zm-28.928,3.616V60.893H98.862V47.978a1.55,1.55,0,0,1,1.55-1.55h7.232A1.55,1.55,0,0,1,109.194,47.978ZM94.73,56.76V52.628H96.8V56.76ZM96.8,58.827v2.066H94.73V58.827ZM94.73,50.561V46.429h2.416a3.582,3.582,0,0,0-.35,1.55v2.583Zm0-12.4V34.031h47.525v4.133Zm-3.1,24.8h53.724v3.1H91.63Zm4.133,14.464H93.7V72.258h2.066Zm14.464,0h-2.066V72.258h2.066Zm18.6,0h-2.066V72.258h2.066Zm14.464,0h-2.066V72.258h2.066Zm4.133-7.232H89.564V68.125h57.857Z" fill="#fff"/>
    <path id="Path_113" data-name="Path 113" d="M156.554,106.893a1.034,1.034,0,0,0-1.147-1.72l-2.526,1.679-2.526-1.679a1.034,1.034,0,1,0-1.147,1.72l3.1,2.066a1.033,1.033,0,0,0,1.147,0Z" transform="translate(-54.018 -77.168)" fill="#fff"/>
    <path id="Path_114" data-name="Path 114" d="M261.554,106.893a1.034,1.034,0,1,0-1.147-1.72l-2.526,1.679-2.526-1.679a1.034,1.034,0,1,0-1.147,1.72l3.1,2.066a1.033,1.033,0,0,0,1.147,0Z" transform="translate(-146.62 -77.168)" fill="#fff"/>
    <path id="Path_115" data-name="Path 115" d="M489.054,106.893a1.034,1.034,0,0,0-1.147-1.72l-2.526,1.679-2.526-1.679a1.034,1.034,0,1,0-1.147,1.72l3.1,2.066a1.033,1.033,0,0,0,1.147,0Z" transform="translate(-347.258 -77.168)" fill="#fff"/>
    <path id="Path_116" data-name="Path 116" d="M384.054,106.893a1.034,1.034,0,1,0-1.147-1.72l-2.526,1.679-2.526-1.679a1.034,1.034,0,1,0-1.147,1.72l3.1,2.066a1.033,1.033,0,0,0,1.147,0Z" transform="translate(-254.656 -77.168)" fill="#fff"/>
    <path id="Path_117" data-name="Path 117" d="M193.533,315a1.033,1.033,0,1,0,.731.3A1.033,1.033,0,0,0,193.533,315Z" transform="translate(-92.604 -262.372)" fill="#fff"/>
  </g>
</svg>
