<svg xmlns="http://www.w3.org/2000/svg" width="91.766" height="85.574" viewBox="0 0 91.766 85.574">
  <g id="wild-animals-5255175" transform="translate(-103.348 10.229)">
    <path id="Path_118" data-name="Path 118" d="M409.475,16.671a.689.689,0,0,0,.31.253l8.14,2.563v5.887a4.617,4.617,0,0,1,.845.394l.282.169V23.291L423,22.643a.625.625,0,0,0,.31-.141l4.788-4.591a.558.558,0,1,0-.76-.817l-4.648,4.45-3.605.592V19.347l3.183-2.084a.57.57,0,0,0-.62-.958L418.4,18.446,415.052,17.4,418.122,14a.57.57,0,0,0-.028-.789.546.546,0,0,0-.789.056l-3.408,3.8-3.1-.986,2.45-3.408a.557.557,0,0,0-.141-.789.582.582,0,0,0-.789.141l-2.366,3.267-3.577-6.028a.559.559,0,0,0-.761-.2.535.535,0,0,0-.2.76Z" transform="translate(-242.697 1.58)" fill="#fff"/>
    <path id="Path_119" data-name="Path 119" d="M404.055,133.8l1.746-4.732-6.084,4.619A15.945,15.945,0,0,1,393.8,136.5l-1.042,3.831h1.887a10.028,10.028,0,0,0,9.408-6.535Z" transform="translate(-233.363 -87.575)" fill="#fff"/>
    <path id="Path_120" data-name="Path 120" d="M288.529,198.51l-1.831-2.338a.566.566,0,0,1-.113-.225l-1.634-8.028a.589.589,0,0,1,.113-.479l4.253-4.929a5.379,5.379,0,0,0,1.211-4.563l-.169-.845s-3.915,0-4.084-.028v1.014a6.512,6.512,0,0,1-3.69,5.859l-2,.958-.479.676,5.69,12.9h2.732Z" transform="translate(-149.721 -123.221)" fill="#fff"/>
    <path id="Path_121" data-name="Path 121" d="M434.2,62.6a3.044,3.044,0,0,0-2.817-2.2l-.563-.028v.648a3.021,3.021,0,0,0,1.746,2.676l.507.225,1.352.62.338.169-.056-.225-.31-1.1Z" transform="translate(-261.625 -36.575)" fill="#fff"/>
    <path id="Path_122" data-name="Path 122" d="M457.736,214.5a.531.531,0,0,1-.338.31.626.626,0,0,1-.451-.028,2.926,2.926,0,0,0-1.3-.31,2.825,2.825,0,0,0-2.817,2.817,2.555,2.555,0,0,0,.282,1.211.571.571,0,0,1-.76.76,2.634,2.634,0,0,0-1.211-.282,2.817,2.817,0,1,0,0,5.634h20.28a2.817,2.817,0,1,0,0-5.634,2.555,2.555,0,0,0-1.211.282.571.571,0,0,1-.761-.76,2.634,2.634,0,0,0,.282-1.211,2.825,2.825,0,0,0-2.817-2.817,3.02,3.02,0,0,0-1.3.31.626.626,0,0,1-.451.028.717.717,0,0,1-.338-.31,3.958,3.958,0,0,0-3.577-2.31,3.878,3.878,0,0,0-3.521,2.31Z" transform="translate(-279.128 -149.294)" fill="#fff"/>
    <path id="Path_123" data-name="Path 123" d="M245.3,112.646c.028-.028.056-.056.084-.056l9.013-4.338a5.394,5.394,0,0,0,3.042-4.845V98.676a.563.563,0,0,1,1.127,0v2.591c.2,0,4.648.028,4.648.028l1.831-2.282a5.9,5.9,0,0,1,4.619-2.225h4.225l.2-.676a.571.571,0,1,1,1.1.31l-2.31,8.056a9.336,9.336,0,0,0,1.155,7.718.555.555,0,0,1,.085.422l-1.014,5.211,2.253,6.028h2.732l-1.07-1.239a.357.357,0,0,1-.113-.254l-1.07-4.648a.481.481,0,0,1,0-.282l6.14-22.449a.571.571,0,0,1,1.1.31l-.254.93a15.115,15.115,0,0,0,4.9-2.451l7.492-5.69,1.634-4.422a.553.553,0,0,1,.592-.366l5.042.676a1.372,1.372,0,0,0,.338.028,2.424,2.424,0,0,0,2.028-1.07,1.314,1.314,0,0,0,.2-1.014,1.282,1.282,0,0,0-.62-.845l-6.9-4.169c-.028,0-.028-.028-.056-.028a3.15,3.15,0,0,0-1.183-.423l.31,1.127a.571.571,0,0,1-.169.592.593.593,0,0,1-.366.141.531.531,0,0,1-.225-.056l-2.2-1.014-.169.169-6.9,6.873a.556.556,0,0,1-.394.169H252.958a5.442,5.442,0,0,0-3.8,1.549l-4.507,4.422a3.122,3.122,0,0,0,2.535-.451l2.986-2.056a.59.59,0,0,1,.31-.113h.845a.545.545,0,0,1,.479.282.512.512,0,0,1,0,.563,8.545,8.545,0,0,0-1.127,4.225V104.14a.588.588,0,0,1-.225.451l-6.788,5.3a2.244,2.244,0,0,0-.845,1.774v1.183a4.109,4.109,0,0,1,1.549-.31,5.236,5.236,0,0,1,.93.113Z" transform="translate(-122.035 -48.511)" fill="#fff"/>
    <path id="Path_124" data-name="Path 124" d="M400,191.442V181.189l-4.281-5.1a10.762,10.762,0,0,1-2.535.282h-2.2l-.2.7,6.732,5.633a.507.507,0,0,1,.2.423v9.746Z" transform="translate(-231.903 -122.491)" fill="#fff"/>
    <path id="Path_125" data-name="Path 125" d="M176.58,230.994a4.759,4.759,0,0,0,.366-1.775,4.5,4.5,0,0,0-4.084-4.507.634.634,0,0,1-.394-.225.571.571,0,0,1-.113-.423,2.276,2.276,0,0,0,.028-.423,2.825,2.825,0,0,0-2.817-2.817,2.774,2.774,0,0,0-2.7,2.084.531.531,0,0,1-.282.366.51.51,0,0,1-.451.028,2.858,2.858,0,0,0-2.929.535.576.576,0,0,1-.591.113.592.592,0,0,1-.366-.479,2.822,2.822,0,0,0-4.957-1.634.592.592,0,0,1-.394.2.759.759,0,0,1-.422-.141,3.947,3.947,0,0,0-6.619,2.9v.2a.618.618,0,0,1-.2.479.653.653,0,0,1-.507.113,5.3,5.3,0,0,0-1.493-.2,5.59,5.59,0,0,0-5.577,5.577v.085h34.5Z" transform="translate(-38.727 -155.705)" fill="#fff"/>
    <path id="Path_130" data-name="Path 130" d="M336.7,159.69h-3.887a4.765,4.765,0,0,0-3.746,1.8L327.8,163.07h7.943Z" transform="translate(-185.129 -110.313)" fill="#fff"/>
    <path id="Path_132" data-name="Path 132" d="M187.093,48.631l.873-.7.028-.028.31-.225a18.962,18.962,0,0,0,.169-6.9l-.479-2.929-1.775,2.676a13.934,13.934,0,0,0-1.38,2.648,7.417,7.417,0,0,1,1.662,3.155Z" transform="translate(-65.187 -30.68)" fill="#fff"/>
    <path id="Path_133" data-name="Path 133" d="M155.09,49.391a.541.541,0,0,1-.338.113h-5.014l3.577,5.943,4-5.352a.588.588,0,0,1,.451-.225h1.324a7.353,7.353,0,0,0,7.154-5.577.545.545,0,0,1,.141-.254l2.451-2.451-.817-.394a2.333,2.333,0,0,0-2.31.141l-3.1,2.056-1.577,1.239a.518.518,0,0,1-.535.084.574.574,0,0,1-.366-.394l-.789-3.127a6.573,6.573,0,0,0-2.676-3.8,7.546,7.546,0,0,1-3.127-4.45l-.592-2.422-.169.169a8.876,8.876,0,0,0,1.352,13.661l3.324,2.2a.574.574,0,0,1,.253.451.568.568,0,0,1-.2.451Z" transform="translate(-39.125 -25.242)" fill="#fff"/>
    <path id="Path_134" data-name="Path 134" d="M547.835,41.8a8.22,8.22,0,0,0,3.549-8.168,8.541,8.541,0,0,0-.789-2.394,8.927,8.927,0,0,0-1.493-2.056l-.085-.084-.535,2.169a7.033,7.033,0,0,1-2.929,4.169,5.964,5.964,0,0,0-2.451,3.493l-.056.282,2.394,4.253Z" transform="translate(-360.098 -39.323)" fill="#fff"/>
    <path id="Path_135" data-name="Path 135" d="M523.189,61.359a.593.593,0,0,1,.366.141.507.507,0,0,1,.2.423v1.69a5.856,5.856,0,0,0,4.225,5.605.558.558,0,0,1,.394.394l1.493,5.239,5.126-3.38-5.183-3.718-.169-.169L525.5,60.26a1.292,1.292,0,0,0-1.183-.76,1.314,1.314,0,0,0-1.183.732l-.648,1.3.535-.113c.113-.056.141-.056.169-.056Z" transform="translate(-344.832 -61.898)" fill="#fff"/>
  </g>
</svg>
