<svg xmlns="http://www.w3.org/2000/svg" width="72.63" height="65.214" viewBox="0 0 72.63 65.214">
  <g id="private-island-5230272" transform="translate(-87.505 -44.288)">
    <path id="Path_136" data-name="Path 136" d="M196.366,175.961c8.583,1.188,11.315-11,2.992-13.523C189.892,160.255,186.86,174.008,196.366,175.961Zm-1.91-10.2a4.517,4.517,0,0,1,6.384,6.371C196.465,176.625,189.931,170.143,194.456,165.762Z" transform="translate(-88.809 -101.603)" fill="#fff"/>
    <path id="Path_137" data-name="Path 137" d="M197.239,275.826a6.719,6.719,0,0,0-6.941,6.455v10.491a1.21,1.21,0,0,0,1.21,1.21h11.46a1.21,1.21,0,0,0,1.21-1.21V282.282C204.251,278.691,200.8,275.732,197.239,275.826Zm4.519,15.736h-9.039v-9.28a4.3,4.3,0,0,1,4.52-4.034c2.274-.058,4.551,1.736,4.519,4.034Z" transform="translate(-88.573 -199.506)" fill="#fff"/>
    <path id="Path_138" data-name="Path 138" d="M316.637,262.69c-7.571.242-7.577,11.2,0,11.441C324.215,273.891,324.205,262.93,316.637,262.69Zm0,9.021a3.3,3.3,0,0,1,0-6.6A3.3,3.3,0,0,1,316.637,271.711Z" transform="translate(-192.54 -188.189)" fill="#fff"/>
    <path id="Path_139" data-name="Path 139" d="M316.332,352.368a5.554,5.554,0,0,0-5.73,5.346v8.273a1.21,1.21,0,0,0,1.21,1.21h9.038a1.21,1.21,0,0,0,1.21-1.21v-8.273A5.587,5.587,0,0,0,316.332,352.368Zm3.308,12.409h-6.617v-7.063a3.334,3.334,0,0,1,6.617,0Z" transform="translate(-192.235 -265.46)" fill="#fff"/>
    <path id="Path_140" data-name="Path 140" d="M93.547,262.69c-7.571.242-7.577,11.2,0,11.441C101.125,273.891,101.115,262.93,93.547,262.69Zm0,9.021a3.3,3.3,0,0,1,0-6.6A3.3,3.3,0,0,1,93.547,271.711Z" transform="translate(-0.312 -188.189)" fill="#fff"/>
    <path id="Path_141" data-name="Path 141" d="M93.235,352.369c-2.936-.077-5.792,2.369-5.73,5.346v8.273a1.21,1.21,0,0,0,1.21,1.21h9.037a1.21,1.21,0,0,0,1.21-1.21v-8.273A5.554,5.554,0,0,0,93.235,352.369Zm3.308,12.409H89.927v-7.063a3.333,3.333,0,0,1,6.616,0Z" transform="translate(0 -265.461)" fill="#fff"/>
    <path id="Path_142" data-name="Path 142" d="M255.376,58.938l5.094-6.1a2.008,2.008,0,0,1,1.546-.724h4.215a4.41,4.41,0,0,0,3.461-1.662l2.387-2.98a2,2,0,0,1,2.319-.61c1.133.409,3.7,1.692,4.911,1.621,1.062-.033,2.317-.091,2.9,1l6.619,11.332a4.448,4.448,0,0,0,3.829,2.2h2.961a2.016,2.016,0,0,1,1.941,1.48l2.989,10.944a1.211,1.211,0,0,0,2.336-.638L299.9,63.846a4.442,4.442,0,0,0-4.277-3.263h-2.961a2.02,2.02,0,0,1-1.738-1L284.3,48.253a4.451,4.451,0,0,0-3.829-2.195,5.792,5.792,0,0,1-1.912-.144l-3.264-1.3a4.407,4.407,0,0,0-5.107,1.345l-2.387,2.98a2.007,2.007,0,0,1-1.572.754h-4.215a4.425,4.425,0,0,0-3.4,1.593l-5.094,6.105a1.211,1.211,0,0,0,1.859,1.551Z" transform="translate(-142.798)" fill="#fff"/>
    <path id="Path_143" data-name="Path 143" d="M339.51,214.036H332.88l-2.581-10.3a3.955,3.955,0,0,0-3.854-3.015c-1.018.085-1.591-1.174-2.074-1.863a3.985,3.985,0,0,0-3.308-1.768h-1.805a3.977,3.977,0,0,0-3.4,1.929l-2.836,4.709a1.21,1.21,0,1,0,2.073,1.248l2.839-4.714a1.547,1.547,0,0,1,1.324-.752c.912.057,2.55-.292,3.1.695.912,1.568,2.121,2.977,4.085,2.936a1.541,1.541,0,0,1,1.5,1.177l2.435,9.716h-13.9a1.21,1.21,0,1,0,0,2.421h17.531l-3.086,6.932a2.6,2.6,0,0,1-2.376,1.541h-3.655a4.993,4.993,0,0,0-4.489,2.771l-1.878,3.751a2.582,2.582,0,0,1-1.5,1.3,11.306,11.306,0,0,0-2.925,1.207l-6.034,4.3a2.619,2.619,0,0,1-2.8.142l-6.366-3.632a1.21,1.21,0,1,0-1.2,2.1l6.366,3.634a5.039,5.039,0,0,0,5.407-.275l6.032-4.3a11.922,11.922,0,0,1,2.286-.882,4.988,4.988,0,0,0,2.9-2.514l1.878-3.75a2.586,2.586,0,0,1,2.325-1.435h3.655a5.025,5.025,0,0,0,4.588-2.979l3.523-7.915h2.85a1.21,1.21,0,0,0,0-2.42Z" transform="translate(-180.59 -131.664)" fill="#fff"/>
  </g>
</svg>
