<svg xmlns="http://www.w3.org/2000/svg" width="18.318" height="10.853" viewBox="0 0 18.318 10.853">
  <path id="Icon_simple-tripadvisor" data-name="Icon simple-tripadvisor" d="M17.7,10.878a5.963,5.963,0,0,1,.9-1.844H15.535a11.142,11.142,0,0,0-6.116-1.7A11.351,11.351,0,0,0,3.15,9.053H.279a5.884,5.884,0,0,1,.893,1.821,4.584,4.584,0,0,0,7.271,5.58l.973,1.462.985-1.478a4.469,4.469,0,0,0,1.683,1.328A4.586,4.586,0,0,0,18.3,12.008a4.443,4.443,0,0,0-.618-1.133Zm-2.42,6.161a3.633,3.633,0,0,1-4.318-1.427,3.5,3.5,0,0,1-.384-.741,3.666,3.666,0,1,1,4.715,2.168H15.28ZM7.9,15.639a3.661,3.661,0,1,1,.63-2.049,3.313,3.313,0,0,1-.037.366,3.668,3.668,0,0,1-.593,1.7Zm-5.36-2.1A2.266,2.266,0,1,0,4.81,11.28a2.27,2.27,0,0,0-2.269,2.262Zm9.2,0A2.264,2.264,0,1,0,14,11.28a2.266,2.266,0,0,0-2.265,2.262Zm-8.413,0a1.483,1.483,0,1,1-.011,0Zm9.184,0a1.482,1.482,0,1,1-.011,0ZM9.415,8.136a10.705,10.705,0,0,1,4.444.887A4.589,4.589,0,0,0,12.4,9.3a4.615,4.615,0,0,0-2.989,3.961A4.6,4.6,0,0,0,4.926,9a11.3,11.3,0,0,1,4.455-.866Z" transform="translate(-0.279 -7.335)" fill="#fff"/>
</svg>
